<?xml version="1.0" encoding="UTF-8" standalone="no"?>
<!-- Creator: fig2dev Version 3.2.9 -->
<!-- CreationDate: 2024-03-20 19:10:37 -->
<!-- Magnification: 1 -->
<svg	xmlns="http://www.w3.org/2000/svg"
	xmlns:xlink="http://www.w3.org/1999/xlink"
	width="380pt" height="189pt"
	viewBox="1815 1905 6318 3135">
<g fill="none">
<!-- Text -->
<text xml:space="preserve" x="4515" y="5025" fill="#000000" font-family="Times" font-style="normal" font-weight="normal" font-size="216" text-anchor="start">5/6</text>
<!-- Circle -->
<circle cx="2348" cy="2341" r="54"
	stroke="#000000" stroke-width="8px"/>
<!-- Circle -->
<circle cx="2400" cy="4725" r="54"
	stroke="#000000" stroke-width="8px"/>
<!-- Circle -->
<circle cx="7417" cy="2317" r="54"
	stroke="#000000" stroke-width="8px"/>
<!-- Line -->
<polyline points=" 2400,2325 7275,2325"
	stroke="#000000" stroke-width="8px"/>
<!-- Line -->
<polyline points=" 2400,2325 7200,4725"
	stroke="#000000" stroke-width="8px"/>
<!-- Line -->
<polyline points=" 2475,4725 7200,2400"
	stroke="#000000" stroke-width="8px"/>
<!-- Line -->
<polyline points=" 2475,4725 7200,4725"
	stroke="#000000" stroke-width="8px"/>
<!-- Line -->
<polyline points=" 2475,4725 7350,2325"
	stroke="#000000" stroke-width="8px"/>
<!-- Line -->
<polyline points=" 2400,2325 7350,2325"
	stroke="#000000" stroke-width="8px"/>
<!-- Line -->
<defs>
<clipPath id="cp0">
	<path clip-rule="evenodd" d="M 1815,1905 H 8133 V 5040 H 1815 z
		M 4596,4665 4716,4725 4596,4785 4732,4732 4732,4718z"/>
</clipPath>
</defs>
<polyline points=" 2475,4725 4725,4725" clip-path="url(#cp0)"
	stroke="#000000" stroke-width="8px"/>
<!-- Forward arrow to point 4725,4725 -->
<polyline points=" 4596,4665 4716,4725 4596,4785"
	stroke="#000000" stroke-width="8px" stroke-miterlimit="8"/>
<!-- Line -->
<defs>
<clipPath id="cp1">
	<path clip-rule="evenodd" d="M 1815,1905 H 8133 V 5040 H 1815 z
		M 4446,2265 4566,2325 4446,2385 4582,2332 4582,2318z"/>
</clipPath>
</defs>
<polyline points=" 2400,2325 4575,2325" clip-path="url(#cp1)"
	stroke="#000000" stroke-width="8px"/>
<!-- Forward arrow to point 4575,2325 -->
<polyline points=" 4446,2265 4566,2325 4446,2385"
	stroke="#000000" stroke-width="8px" stroke-miterlimit="8"/>
<!-- Line -->
<defs>
<clipPath id="cp2">
	<path clip-rule="evenodd" d="M 1815,1905 H 8133 V 5040 H 1815 z
		M 5963,2943 6097,2944 6016,3051 6114,2943 6108,2931z"/>
</clipPath>
</defs>
<polyline points=" 2475,4725 6105,2940" clip-path="url(#cp2)"
	stroke="#000000" stroke-width="8px"/>
<!-- Forward arrow to point 6105,2940 -->
<polyline points=" 5963,2943 6097,2944 6016,3051"
	stroke="#000000" stroke-width="8px" stroke-miterlimit="8"/>
<!-- Line -->
<defs>
<clipPath id="cp3">
	<path clip-rule="evenodd" d="M 1815,1905 H 8133 V 5040 H 1815 z
		M 6032,4074 6112,4181 5978,4181 6123,4194 6129,4182z"/>
</clipPath>
</defs>
<polyline points=" 2415,2333 6120,4185" clip-path="url(#cp3)"
	stroke="#000000" stroke-width="8px"/>
<!-- Forward arrow to point 6120,4185 -->
<polyline points=" 6032,4074 6112,4181 5978,4181"
	stroke="#000000" stroke-width="8px" stroke-miterlimit="8"/>
<!-- Text -->
<text xml:space="preserve" x="1830" y="4800" fill="#000000" font-family="Times" font-style="normal" font-weight="normal" font-size="288" text-anchor="start">A</text>
<!-- Text -->
<text xml:space="preserve" x="7710" y="2400" fill="#000000" font-family="Times" font-style="normal" font-weight="normal" font-size="288" text-anchor="start">B</text>
<!-- Text -->
<text xml:space="preserve" x="7785" y="4830" fill="#000000" font-family="Times" font-style="normal" font-weight="normal" font-size="288" text-anchor="start">B</text>
<!-- Text -->
<text xml:space="preserve" x="2145" y="2475" fill="#000000" font-family="Times" font-style="normal" font-weight="normal" font-size="216" text-anchor="start">0</text>
<!-- Text -->
<text xml:space="preserve" x="2100" y="4905" fill="#000000" font-family="Times" font-style="normal" font-weight="normal" font-size="216" text-anchor="start">1</text>
<!-- Text -->
<text xml:space="preserve" x="7935" y="2490" fill="#000000" font-family="Times" font-style="normal" font-weight="normal" font-size="216" text-anchor="start">0</text>
<!-- Text -->
<text xml:space="preserve" x="1860" y="2415" fill="#000000" font-family="Times" font-style="normal" font-weight="normal" font-size="288" text-anchor="start">A</text>
<!-- Text -->
<text xml:space="preserve" x="7980" y="4905" fill="#000000" font-family="Times" font-style="normal" font-weight="normal" font-size="216" text-anchor="start">1</text>
<!-- Text -->
<text xml:space="preserve" x="4230" y="2130" fill="#000000" font-family="Times" font-style="normal" font-weight="normal" font-size="216" text-anchor="start">7/8</text>
<!-- Text -->
<text xml:space="preserve" x="6255" y="3135" fill="#000000" font-family="Times" font-style="normal" font-weight="normal" font-size="216" text-anchor="start">1/6</text>
<!-- Text -->
<text xml:space="preserve" x="6000" y="3990" fill="#000000" font-family="Times" font-style="normal" font-weight="normal" font-size="216" text-anchor="start">1/8</text>
<!-- Circle -->
<circle cx="7252" cy="4732" r="54"
	stroke="#000000" stroke-width="8px"/>
</g>
</svg>
